<?xml version="1.0" encoding="UTF-8" standalone="no"?>
<svg
   xmlns:dc="http://purl.org/dc/elements/1.1/"
   xmlns:cc="http://creativecommons.org/ns#"
   xmlns:rdf="http://www.w3.org/1999/02/22-rdf-syntax-ns#"
   xmlns:svg="http://www.w3.org/2000/svg"
   xmlns="http://www.w3.org/2000/svg"
   xmlns:sodipodi="http://sodipodi.sourceforge.net/DTD/sodipodi-0.dtd"
   xmlns:inkscape="http://www.inkscape.org/namespaces/inkscape"
   width="32mm"
   height="32mm"
   viewBox="0 0 32 32"
   version="1.1"
   id="svg8"
   inkscape:version="1.0.1 (3bc2e813f5, 2020-09-07)"
   sodipodi:docname="spin-unlink.svg">
  <defs
     id="defs2" />
  <sodipodi:namedview
     id="base"
     pagecolor="#ffffff"
     bordercolor="#666666"
     borderopacity="1.0"
     inkscape:pageopacity="0.0"
     inkscape:pageshadow="2"
     inkscape:zoom="5.3630285"
     inkscape:cx="76.007"
     inkscape:cy="65.860381"
     inkscape:document-units="mm"
     inkscape:current-layer="layer1"
     inkscape:document-rotation="0"
     showgrid="true"
     units="mm"
     inkscape:lockguides="false"
     inkscape:window-width="1530"
     inkscape:window-height="974"
     inkscape:window-x="525"
     inkscape:window-y="48"
     inkscape:window-maximized="0">
    <inkscape:grid
       type="xygrid"
       id="grid849" />
  </sodipodi:namedview>
  <metadata
     id="metadata5">
    <rdf:RDF>
      <cc:Work
         rdf:about="">
        <dc:format>image/svg+xml</dc:format>
        <dc:type
           rdf:resource="http://purl.org/dc/dcmitype/StillImage" />
        <dc:title />
      </cc:Work>
    </rdf:RDF>
  </metadata>
  <g
     inkscape:label="Layer 1"
     inkscape:groupmode="layer"
     id="layer1">
    <path
       id="rect851"
       style="fill:#090909;fill-opacity:1;fill-rule:nonzero;stroke:none;stroke-width:0.999999;stroke-miterlimit:4;stroke-dasharray:3, 3;stroke-dashoffset:0;stroke-opacity:1"
       d="M 40 10 C 28.920001 10 20 18.92 20 30 L 20 45 L 35 45 L 35 35 C 35 29.46 39.460003 25 45 25 L 75 25 C 80.539997 25 85 29.46 85 35 L 85 45 L 100 45 L 100 30 C 100 18.92 91.079999 10 80 10 L 40 10 z M 20 75 L 20 90 C 20 101.08 28.920001 110 40 110 L 80 110 C 91.079999 110 100 101.08 100 90 L 100 75 L 85 75 L 85 85 C 85 90.540001 80.539997 95 75 95 L 45 95 C 39.460003 95 35 90.540001 35 85 L 35 75 L 20 75 z "
       transform="scale(0.26458333)" />
  </g>
</svg>
